HIERARCHY
ROOT hip
{
  OFFSET 0 0 0
  CHANNELS 6 Xposition Yposition Zposition Zrotation Yrotation Xrotation
  JOINT abdomen
  {
    OFFSET 0 20.6881 -0.73152
    CHANNELS 3 Zrotation Xrotation Yrotation
    JOINT chest
    {
      OFFSET 0 11.7043 -0.48768
      CHANNELS 3 Zrotation Xrotation Yrotation
      JOINT neck
      {
        OFFSET 0 22.1894 -2.19456
        CHANNELS 3 Zrotation Xrotation Yrotation
        JOINT head
        {
          OFFSET -0.24384 7.07133 1.2192
          CHANNELS 3 Zrotation Xrotation Yrotation
          JOINT leftEye
          {
            OFFSET 4.14528 8.04674 8.04672
            CHANNELS 3 Zrotation Xrotation Yrotation
            End Site
            {
              OFFSET 1 0 0
            }
          }
          JOINT rightEye
          {
            OFFSET -3.6576 8.04674 8.04672
            CHANNELS 3 Zrotation Xrotation Yrotation
            End Site
            {
              OFFSET 1 0 0
            }
          }
        }
      }
      JOINT rCollar
      {
        OFFSET -2.68224 19.2634 -4.8768
        CHANNELS 3 Zrotation Xrotation Yrotation
        JOINT rShldr
        {
          OFFSET -8.77824 -1.95073 1.46304
          CHANNELS 3 Zrotation Xrotation Yrotation
          JOINT rForeArm
          {
            OFFSET -28.1742 -1.7115 0.48768
            CHANNELS 3 Zrotation Xrotation Yrotation
            JOINT rHand
            {
              OFFSET -22.5879 0.773209 7.07136
              CHANNELS 3 Zrotation Xrotation Yrotation
              JOINT rThumb1
              {
                OFFSET -1.2192 -0.487915 3.41376
                CHANNELS 3 Zrotation Xrotation Yrotation
                JOINT rThumb2
                {
                  OFFSET -3.37035 -0.52449 3.41376
                  CHANNELS 3 Zrotation Xrotation Yrotation
                  End Site
                  {
                    OFFSET -1.78271 -1.18214 1.43049
                  }
                }
              }
              JOINT rIndex1
              {
                OFFSET -7.75947 0.938293 5.60832
                CHANNELS 3 Zrotation Xrotation Yrotation
                JOINT rIndex2
                {
                  OFFSET -2.54057 -0.884171 1.56538
                  CHANNELS 3 Zrotation Xrotation Yrotation
                  End Site
                  {
                    OFFSET -1.62519 -0.234802 1.16502
                  }
                }
              }
              JOINT rMid1
              {
                OFFSET -8.24714 1.18213 3.41376
                CHANNELS 3 Zrotation Xrotation Yrotation
                JOINT rMid2
                {
                  OFFSET -3.10165 -0.590103 1.0647
                  CHANNELS 3 Zrotation Xrotation Yrotation
                  End Site
                  {
                    OFFSET -2.48547 -0.328903 0.83742
                  }
                }
              }
              JOINT rRing1
              {
                OFFSET -8.82822 0.546677 1.51678
                CHANNELS 3 Zrotation Xrotation Yrotation
                JOINT rRing2
                {
                  OFFSET -2.60934 -0.819778 -0.0198488
                  CHANNELS 3 Zrotation Xrotation Yrotation
                  End Site
                  {
                    OFFSET -2.33842 -0.294052 0.168128
                  }
                }
              }
              JOINT rPinky1
              {
                OFFSET -8.27202 -0.0477905 -0.4584
                CHANNELS 3 Zrotation Xrotation Yrotation
                JOINT rPinky2
                {
                  OFFSET -1.82734 -0.647385 -0.700984
                  CHANNELS 3 Zrotation Xrotation Yrotation
                  End Site
                  {
                    OFFSET -1.69225 -0.51767 -0.607171
                  }
                }
              }
            }
          }
        }
      }
      JOINT lCollar
      {
        OFFSET 2.68224 19.2634 -4.8768
        CHANNELS 3 Zrotation Xrotation Yrotation
        JOINT lShldr
        {
          OFFSET 8.77824 -1.95073 1.46304
          CHANNELS 3 Zrotation Xrotation Yrotation
          JOINT lForeArm
          {
            OFFSET 28.1742 -1.7115 0.48768
            CHANNELS 3 Zrotation Xrotation Yrotation
            JOINT lHand
            {
              OFFSET 22.5879 0.773209 7.07136
              CHANNELS 3 Zrotation Xrotation Yrotation
              JOINT lThumb1
              {
                OFFSET 1.2192 -0.487915 3.41376
                CHANNELS 3 Zrotation Xrotation Yrotation
                JOINT lThumb2
                {
                  OFFSET 3.37035 -0.52449 3.41376
                  CHANNELS 3 Zrotation Xrotation Yrotation
                  End Site
                  {
                    OFFSET 1.78271 -1.18214 1.43049
                  }
                }
              }
              JOINT lIndex1
              {
                OFFSET 7.75947 0.938293 5.60832
                CHANNELS 3 Zrotation Xrotation Yrotation
                JOINT lIndex2
                {
                  OFFSET 2.54057 -0.884171 1.56538
                  CHANNELS 3 Zrotation Xrotation Yrotation
                  End Site
                  {
                    OFFSET 1.62519 -0.234802 1.16502
                  }
                }
              }
              JOINT lMid1
              {
                OFFSET 8.24714 1.18213 3.41376
                CHANNELS 3 Zrotation Xrotation Yrotation
                JOINT lMid2
                {
                  OFFSET 3.10165 -0.590103 1.0647
                  CHANNELS 3 Zrotation Xrotation Yrotation
                  End Site
                  {
                    OFFSET 2.48547 -0.328903 0.83742
                  }
                }
              }
              JOINT lRing1
              {
                OFFSET 8.82822 0.546677 1.51678
                CHANNELS 3 Zrotation Xrotation Yrotation
                JOINT lRing2
                {
                  OFFSET 2.60934 -0.819778 -0.0198488
                  CHANNELS 3 Zrotation Xrotation Yrotation
                  End Site
                  {
                    OFFSET 2.33842 -0.294052 0.168128
                  }
                }
              }
              JOINT lPinky1
              {
                OFFSET 8.27202 -0.0477905 -0.4584
                CHANNELS 3 Zrotation Xrotation Yrotation
                JOINT lPinky2
                {
                  OFFSET 1.82734 -0.647385 -0.700984
                  CHANNELS 3 Zrotation Xrotation Yrotation
                  End Site
                  {
                    OFFSET 1.69225 -0.51767 -0.607171
                  }
                }
              }
            }
          }
        }
      }
    }
  }
  JOINT rButtock
  {
    OFFSET -8.77824 4.35084 1.2192
    CHANNELS 3 Zrotation Xrotation Yrotation
    JOINT rThigh
    {
      OFFSET 0 -1.70687 -2.19456
      CHANNELS 3 Zrotation Xrotation Yrotation
      JOINT rShin
      {
        OFFSET 0 -36.8199 0.73152
        CHANNELS 3 Zrotation Xrotation Yrotation
        JOINT rFoot
        {
          OFFSET 0.73152 -45.1104 -5.12064
          CHANNELS 3 Zrotation Xrotation Yrotation
          End Site
          {
            OFFSET -1.1221 -3.69964 12.103
          }
        }
      }
    }
  }
  JOINT lButtock
  {
    OFFSET 8.77824 4.35084 1.2192
    CHANNELS 3 Zrotation Xrotation Yrotation
    JOINT lThigh
    {
      OFFSET 0 -1.70687 -2.19456
      CHANNELS 3 Zrotation Xrotation Yrotation
      JOINT lShin
      {
        OFFSET 0 -36.8199 0.73152
        CHANNELS 3 Zrotation Xrotation Yrotation
        JOINT lFoot
        {
          OFFSET -0.73152 -45.1104 -5.12064
          CHANNELS 3 Zrotation Xrotation Yrotation
          End Site
          {
            OFFSET 1.1221 -3.69964 12.103
          }
        }
      }
    }
  }
}
MOTION
Frames:	8
Frame Time:	0.03333
0.0 0.0 0.0 0.0 0.0 0.0 0.0 0.0 0.0 0.0 0.0 0.0 0.0 0.0 0.0 0.0 0.0 0.0 0.0 0.0 0.0 0.0 0.0 0.0 0.0 0.0 0.0 0.0 0.0 0.0 0.0 0.0 0.0 0.0 0.0 0.0 0.0 0.0 0.0 0.0 0.0 0.0 0.0 0.0 0.0 0.0 0.0 0.0 0.0 0.0 0.0 0.0 0.0 0.0 0.0 0.0 0.0 0.0 0.0 0.0 0.0 0.0 0.0 0.0 0.0 0.0 0.0 0.0 0.0 0.0 0.0 0.0 0.0 0.0 0.0 0.0 0.0 0.0 0.0 0.0 0.0 0.0 0.0 0.0 0.0 0.0 0.0 0.0 0.0 0.0 0.0 0.0 0.0 0.0 0.0 0.0 0.0 0.0 0.0 0.0 0.0 0.0 0.0 0.0 0.0 0.0 0.0 0.0 0.0 0.0 0.0 0.0 0.0 0.0 0.0 0.0 0.0 0.0 0.0 0.0 0.0 0.0 0.0 0.0 0.0 0.0 0.0 0.0 0.0 0.0 0.0 0.0
0.029799999999999997 59.4587 -0.0896 -6.214956 -18.688587 7.212598 0.568386 11.073086 171.862771 -8.341465 5.460011 173.79818 7.596784 34.455599 117.497322 -36.912023 23.223747 -168.338691 0.003546 0.0 0.00182 -0.002179 -0.0 0.001592 0.163393 -0.990005 -0.218702 40.499882 13.44118 -0.68414 -176.886726 16.95351 53.794341 -178.132419 -5.755587 143.111939 148.871124 -40.126718 77.649465 -52.689547 5.618875 2.846508 -50.386314 40.82672 40.024357 179.744197 -33.374712 109.474741 -160.097453 -4.901066 142.96969 2.384434 2.429971 0.702188 -145.110523 -0.626879 -178.93063 10.264274 -0.20764 -9.021931 -75.779544 -51.666061 -74.249551 -151.791218 29.597352 -146.260438 159.219887 -49.376442 -170.711078 -137.409621 21.922807 130.919887 -172.813526 -5.008138 -65.020137 -173.91596 -11.220938 -144.074592 -176.505297 -20.694933 -88.627787 77.503959 11.411901 -23.554475 -11.102625 -19.709048 4.826075 149.302046 0.903919 -109.7788 -15.674864 -46.712808 2.53537 -2.520808 1.623833 -0.265845 145.120761 1.974948 179.749833 154.313145 -12.531113 177.507935 154.408761 46.072777 149.059478 11.434303 -25.293564 13.085535 -179.997747 75.750343 -0.001542 160.08087 23.384746 -0.0 -68.684881 58.294054 -31.839831 -99.593094 82.354877 -149.816602 0.000399 -0.000701 0.0001 51.536591 -43.274481 142.751723 85.035314 -26.020361 -11.687077 161.387091 -62.63099 68.395773
0.0819 58.892900000000004 -0.1459 -6.155668 -17.782398 7.060649 0.600228 11.35296 171.973282 -8.206682 5.504594 173.740255 -10.512744 23.424866 -26.029845 26.78302 -21.23542 -24.40516 0.001341 -0.0 -0.000769 0.001341 -0.0 -0.000769 -9.651758 34.836238 11.198881 43.380836 -6.854872 18.023611 -4.234829 -29.445332 89.908812 -6.651273 -2.563209 -2.672943 -159.653616 2.601047 88.80011 -13.245 -39.934191 11.772091 -22.046528 26.608266 15.680087 -67.273821 48.903324 49.150238 -173.038189 -44.087738 144.930618 3.037893 0.160553 0.338638 -0.001188 -0.060629 -0.020507 6.151968 33.723037 5.592484 -135.821829 -11.891797 -133.184503 -152.768215 29.463087 -145.175335 9.652305 34.836063 -11.199573 89.424422 8.841346 -123.67115 -19.344874 27.826519 123.063662 -175.486715 -6.862003 -144.285612 -81.971666 -50.091959 -32.722637 32.568496 7.399163 7.088677 108.427733 34.160703 -91.742657 14.02117 29.947149 -3.3048 151.477938 17.842079 -137.539148 162.862449 -3.770167 -142.877377 145.100465 -1.52255 178.650893 156.371152 15.315166 -178.977313 137.124225 -9.171553 134.41949 -3.6296 2.305953 1.198375 -179.997331 75.749199 -0.001826 159.338637 23.190294 8.056171 -69.224231 68.896267 -65.474078 -93.604974 48.602364 -153.284559 -179.993755 75.749919 -0.005138 -141.632647 14.935447 -71.967031 -84.999632 43.660509 175.377428 178.848375 -48.598986 85.383542
0.148 58.285 -0.2174 -6.109792 -17.131303 6.968802 0.951948 16.333945 -0.229677 7.063959 -11.338624 -13.508654 -13.686853 36.368901 -107.070786 39.414848 27.327701 44.113553 0.001454 -0.0 -0.005395 0.001198 0.0 0.000328 -158.514166 -30.701951 167.039272 -23.295952 15.516469 1.684821 -50.654498 -16.847887 -162.890777 156.911126 -60.419525 133.479286 -78.493212 38.701942 42.741456 -130.696548 -22.433675 81.557801 -13.871002 18.814931 9.291255 -66.884736 48.557423 49.680779 -167.374921 -28.008479 145.269457 -170.53823 -26.266958 143.88965 -72.96576 -72.143064 -89.990137 14.068058 27.244128 -0.942595 -12.837732 -24.809703 -12.206193 -22.422462 -40.178557 -23.686689 -4.239694 -44.742811 8.646732 51.087197 -62.752414 121.89462 -80.987033 -16.997687 90.042195 162.501523 47.492914 -135.944909 171.602698 -9.28654 -89.949938 121.924813 13.321253 -57.728891 46.524029 39.752339 -36.596774 155.714955 2.45544 -110.916589 160.573566 -6.359149 -143.198752 -24.429933 -53.177317 -3.414069 -0.004379 1.771037 -0.555573 152.819859 25.115169 -168.029194 25.53631 -38.088391 24.59707 -2.067177 -3.034197 1.25496 179.988107 75.750063 0.009785 158.405878 22.6617 24.180569 3.905275 71.817237 12.700192 152.971641 -12.118683 11.710712 179.994009 75.748338 0.004929 -142.869319 14.604592 0.0 95.062393 67.792987 47.875638 -72.049248 -23.203305 -152.120156
0.217 57.6621 -0.3215 -5.952276 -16.802167 6.941601 -1.774245 13.948295 93.138704 -9.513178 -8.939277 -108.179712 -6.785092 40.715944 -153.633468 16.031589 47.132588 92.484054 -0.002464 -0.0 0.002135 -0.002204 0.0 -0.003589 -8.482549 32.161079 9.929093 42.642192 -6.143877 16.168805 2.259517 -28.309423 97.636675 -8.461003 3.369992 -2.085255 -173.771384 -11.439774 89.890407 9.884548 -60.150472 11.783265 -14.227764 19.203421 9.560545 2.934601 8.79228 0.976693 -15.319115 32.80897 11.2077 -167.210329 -17.333999 144.192553 -145.11823 0.185686 -179.186162 11.800296 26.290036 -6.005428 -126.796327 -26.618878 -124.512184 -154.541106 36.403652 -146.293512 159.221397 -48.02867 -170.414159 56.187198 -21.732586 57.31913 -113.963981 -23.123497 123.954744 74.759194 72.221661 -55.427133 164.6993 -2.371432 -89.585929 150.396959 1.68993 -75.886679 2.687773 4.226314 -1.583848 5.034207 20.519112 -5.508238 8.41713 20.880358 -5.645141 17.901992 42.295 -14.436026 145.119867 0.226594 179.199577 -11.89922 29.423843 5.659508 156.377823 53.734088 150.120906 146.804294 7.516046 140.946226 -0.0 0.000461 0.001401 -33.033876 -50.093621 139.712787 83.64516 -64.303042 57.653414 138.660211 36.854367 140.221846 -179.8455 75.748654 -0.119079 -142.803034 13.460935 -0.0 87.364951 65.243482 8.248349 -106.393878 67.463895 -3.101601
0.22460000000000002 57.011500000000005 -0.41209999999999997 -5.730233 -16.770721 7.015063 0.342578 16.521381 -0.0 7.275761 -11.539813 -13.873449 2.777504 23.046187 48.265222 -24.227829 -19.546739 -109.154098 0.001418 -0.0 -0.001126 0.001277 -0.0 -0.001151 -83.951262 68.259021 87.08582 77.549853 -48.802685 62.680359 -10.424963 -31.523326 93.147359 -4.879811 -8.294568 -3.053542 -7.758462 7.439254 1.68118 0.088657 1.103497 4.86527 -6.245762 9.398051 3.862753 -177.318861 -32.552177 106.998512 -0.96917 2.779687 0.552678 -88.690653 64.082266 80.42864 0.000471 0.022734 0.006519 11.10843 -13.792222 -1.71227 12.99065 44.343994 10.760474 39.728082 81.582792 -3.739987 44.911342 -86.28853 66.519013 72.417657 -32.348301 106.659876 70.651216 20.939132 88.915732 -90.290133 -72.218538 -73.994555 169.571947 -7.253889 -89.929896 83.881157 7.308787 -30.468841 145.338278 -6.264116 -118.678588 164.912548 -20.562873 -119.285066 4.104212 11.116423 -2.538788 167.974081 -19.469795 -144.290642 -0.00451 1.771411 -0.556333 154.320109 -65.014715 178.248161 81.323577 -51.182029 79.74092 147.038808 13.588857 143.151624 179.958608 75.749491 0.031903 158.8553 18.499232 -129.3646 -74.07842 -54.490509 178.251165 -52.224697 28.824783 -40.481657 179.996892 75.749494 0.002126 -141.379211 11.034317 -98.729645 -89.356621 15.806343 171.816931 159.915345 -88.011324 77.637673
0.3132 56.419 -0.545 -5.739978 -16.985229 7.014868 0.029107 16.60584 -0.007156 7.312557 -11.542649 -13.742468 4.025808 24.089612 58.515729 -28.790554 -14.53297 -118.818512 0.001478 0.0 0.003372 0.001711 -0.0 -0.002352 3.456386 -62.668819 -13.250385 -7.690104 -42.404913 -34.182463 -154.606714 77.36226 -100.277621 -7.717224 0.840193 -2.362094 9.389728 -9.381221 -0.681991 1.899646 -7.017264 -8.360821 -151.352367 -17.158415 121.133645 0.775987 19.568293 -5.424914 -152.125292 16.402898 138.012835 -42.41252 58.296501 36.592234 -145.100438 -1.519458 -178.649 11.931988 26.173418 -6.017493 -0.167743 -0.436994 -0.153547 -152.237018 29.156948 -147.212225 -0.070974 -0.427856 0.094378 94.468849 3.139023 -156.22135 -37.096393 25.599422 145.768505 178.952482 10.699892 -144.207047 -8.270207 -8.2633 0.681697 -27.138038 -59.37696 24.318829 129.576669 16.761366 -108.786066 8.709757 27.077091 0.628636 -89.034543 -81.394282 -59.760101 83.391482 64.150593 -75.1637 -0.004023 0.605882 -0.188537 -6.861854 29.710346 -4.679439 -44.731622 86.378 5.36486 148.350691 11.301991 142.533497 179.984329 75.75053 0.010723 156.61671 17.34894 117.152523 77.322807 -4.778284 -82.679333 102.159079 -13.520693 13.592859 0.007721 0.000842 0.007722 57.741363 -46.10003 139.84303 91.24515 -16.964872 -4.696108 168.617801 -74.995384 82.204294
0.3942 55.7837 -0.659 -5.354146 -17.232196 7.159169 1.569364 12.67919 -131.808277 2.17603 9.030964 116.893265 -1.943701 20.776986 24.376567 -8.522593 -27.888614 -82.175249 0.000906 -0.0 -0.002761 0.000906 -0.0 -0.002761 4.225457 -44.097078 -8.516351 28.578197 12.013005 -17.962617 -100.595139 -34.464323 82.577792 143.882575 -69.412278 122.579246 81.276429 -49.995925 32.239803 -137.221599 16.569252 102.454153 -7.260098 10.780719 4.547486 34.123511 -32.19157 1.590308 173.122981 -66.29774 137.613666 -175.60303 -39.336926 142.988383 -145.099017 -1.521805 -178.651591 -141.694671 -56.538745 -163.984549 -144.860079 11.078913 -141.544224 56.489486 82.249404 -19.247769 155.548919 -3.804399 -161.899435 -139.411507 -18.021355 163.424584 -90.294212 24.19775 -72.007369 140.108744 65.280871 -117.101736 173.771531 -11.439625 -89.8911 103.621298 14.375254 -44.1121 158.400848 -30.156102 -122.605175 14.172494 39.45083 -5.703052 175.931599 -50.680422 -144.036544 163.444304 -4.812043 -143.028279 -0.000347 -0.018425 0.006539 155.41174 -1.111841 -171.977733 -6.459419 19.599745 -5.775292 146.605242 8.11876 142.742425 0.001942 -0.000768 0.000971 -37.951332 -52.902964 135.642707 75.015257 -67.585817 -21.107942 -71.196168 49.720421 -26.492404 179.997876 75.75041 0.002191 -143.134272 9.258663 102.109503 93.776094 -35.172435 1.246565 -28.058516 -13.558277 -85.102984
